<?xml version="1.0" standalone="no"?>
<svg xmlns="http://www.w3.org/2000/svg" viewBox="0 0 168.696 28.383" width="168.696" height="28.383"><g fill="#fdb10e" color="#fdb10e" transform="translate(0, 0) scale(0.6170213)"><svg width="47.0" height="46.0" x="0.0" y="0.0" viewBox="0 0 47 46"><path fill="currentColor" fill-rule="nonzero" d="M44.78 1.64c-3.27-3.27-12.02-.08-21.36 7.22-9.34-7.3-18.09-10.5-21.36-7.22C-1.22 4.91 1.98 13.66 9.27 23 1.98 32.34-1.22 41.09 2.06 44.37c3.27 3.27 12.02.08 21.36-7.22 9.34 7.29 18.09 10.49 21.36 7.22 3.27-3.27.08-12.02-7.22-21.36 7.3-9.35 10.5-18.1 7.22-21.37zm-3.69 2.48c.69 0 .98.14 1.02.18.19.19.68 2.33-1.68 7.26-1.28 2.67-3.1 5.54-5.31 8.44-1.3-1.51-2.7-3.02-4.2-4.51-1.49-1.49-3-2.89-4.51-4.19 6.23-4.72 11.69-7.18 14.68-7.18zM32.71 23a80.65 80.65 0 0 1-9.29 9.29 82.406 82.406 0 0 1-4.84-4.45 80.65 80.65 0 0 1-4.45-4.83 79.34 79.34 0 0 1 4.45-4.84 84.12 84.12 0 0 1 4.83-4.46 79.34 79.34 0 0 1 9.3 9.29zM4.54 5.33c0-.69.14-.98.18-1.02.19-.19 2.33-.68 7.26 1.69 2.67 1.28 5.54 3.1 8.44 5.31a87.109 87.109 0 0 0-4.51 4.2c-1.49 1.49-2.89 3-4.19 4.51C7 13.78 4.54 8.32 4.54 5.33zm1.21 36.55c-.69 0-.99-.15-1.02-.18-.19-.19-.68-2.33 1.69-7.26 1.28-2.67 3.1-5.54 5.31-8.44 1.31 1.51 2.71 3.02 4.2 4.51 1.49 1.49 3 2.89 4.51 4.19-6.24 4.73-11.7 7.18-14.69 7.18zm36.55-1.21c0 .69-.15.98-.18 1.02-.19.19-2.33.68-7.26-1.68-2.67-1.28-5.54-3.1-8.44-5.31 1.51-1.3 3.02-2.7 4.51-4.2 1.49-1.49 2.89-3 4.2-4.51 4.71 6.23 7.17 11.69 7.17 14.68z"></path></svg></g><line x1="41" y1="1" x2="41" y2="27.383" stroke="#4295c1" stroke-linecap="round"></line><path fill="#4295c1" fill-rule="nonzero" d="M17.52 1.85L21.00 1.85L16.42 18.94L13.63 18.94L10.49 8.57L7.34 18.94L4.56 18.94L0 1.85L3.48 1.85L6.12 12.62L8.74 3.72Q9.17 1.73 10.56 1.73L10.56 1.73Q11.26 1.73 11.62 2.24Q11.98 2.76 12.26 3.72L12.26 3.72L14.86 12.62L17.52 1.85ZM33.17 12.82L33.17 12.82L25.18 12.82Q25.18 14.69 25.76 15.55Q26.35 16.42 28.13 16.42L28.13 16.42Q29.28 16.42 29.83 15.68Q30.38 14.95 30.38 14.28L30.38 14.28L33.19 14.28Q33.19 16.85 31.81 18.05Q30.43 19.25 28.16 19.25Q25.90 19.25 24.65 18.60L24.65 18.60Q22.08 17.28 22.08 11.59L22.08 11.59Q22.08 8.21 23.54 6.64Q25.01 5.06 28.01 5.06L28.01 5.06Q33.22 5.06 33.22 10.85L33.22 10.85Q33.22 11.47 33.17 12.82ZM25.25 10.68L25.25 10.68L30.38 10.68Q30.38 9.10 29.78 8.38Q29.18 7.66 27.95 7.66Q26.71 7.66 25.98 8.39Q25.25 9.12 25.25 10.68ZM41.90 18.96L41.90 18.96L39.19 18.94Q37.39 18.94 36.47 17.88Q35.54 16.82 35.54 15.36L35.54 15.36L35.54 0.89L38.66 0.89L38.66 6.94L42.38 5.21Q44.52 5.21 45.53 6.36L45.53 6.36Q46.42 7.39 46.63 9.70L46.63 9.70Q46.70 10.66 46.70 12.07L46.70 12.07Q46.70 18.96 41.90 18.96ZM39.46 16.27L39.46 16.27L40.99 16.27Q43.58 16.27 43.58 12.07L43.58 12.07Q43.58 9.94 43.19 9.10Q42.79 8.26 41.47 8.26L41.47 8.26L38.66 9.77L38.66 15.17Q38.66 16.13 39.46 16.27ZM56.50 13.92L56.50 13.92L59.33 13.90Q59.30 14.09 59.28 14.59Q59.26 15.10 59.24 15.28Q59.23 15.46 59.18 15.84Q59.14 16.22 59.08 16.40Q59.02 16.58 58.92 16.87L58.92 16.87Q58.49 18.12 56.57 18.84L56.57 18.84Q55.34 19.27 54.01 19.27Q52.68 19.27 51.60 18.84Q50.52 18.41 49.90 17.74L49.90 17.74Q48.48 16.25 48.48 12.16Q48.48 8.06 49.90 6.58L49.90 6.58Q50.52 5.90 51.60 5.47Q52.68 5.04 54.00 5.04L54.00 5.04Q56.59 5.04 57.94 6.34Q59.28 7.63 59.28 9.94L59.28 9.94L56.45 9.94Q56.45 8.88 55.92 8.36Q55.39 7.85 53.96 7.85Q52.54 7.85 52.07 8.74Q51.60 9.62 51.60 11.40L51.60 11.40L51.60 12.65Q51.60 15.50 52.70 16.15L52.70 16.15Q53.21 16.46 54.02 16.46Q54.84 16.46 55.36 16.31Q55.87 16.15 56.10 15.77Q56.33 15.38 56.40 15.01Q56.47 14.64 56.50 13.92ZM69.22 5.28L69.22 5.28L68.35 8.35Q67.99 8.21 67.54 8.21L67.54 8.21Q66.34 8.21 64.58 9.24L64.58 9.24L64.58 18.94L61.46 18.94L61.46 5.23L63.79 5.23L64.51 6.43L67.82 5.06Q68.06 5.04 68.47 5.04Q68.88 5.04 69.22 5.28ZM80.74 5.14L80.74 18.94L78.65 18.94L77.69 17.28L74.35 19.08Q71.57 19.08 70.61 17.06L70.61 17.06Q70.13 16.08 69.95 14.94Q69.77 13.80 69.77 12.56Q69.77 11.33 69.79 10.74Q69.82 10.15 69.91 9.37Q70.01 8.59 70.19 8.06Q70.37 7.54 70.70 6.97Q71.04 6.41 71.52 6.07L71.52 6.07Q72.60 5.33 74.33 5.33L74.33 5.33L77.62 5.33L80.74 5.14ZM75.24 15.79L77.62 14.57L77.62 8.14L75.24 8.14Q73.92 8.14 73.40 9.14Q72.89 10.15 72.89 12.16Q72.89 14.16 73.38 14.98Q73.87 15.79 75.24 15.79L75.24 15.79ZM89.93 5.76L89.93 8.14L87.38 8.14L87.38 18.94L84.26 18.94L84.26 8.14L82.97 8.14L82.97 5.76L84.26 5.76L84.26 4.44Q84.26 2.98 85.20 1.92Q86.14 0.86 87.91 0.86L87.91 0.86L89.93 0.86L89.93 3.50L88.46 3.50Q87.38 3.50 87.38 4.63L87.38 4.63L87.38 5.76L89.93 5.76ZM98.18 16.30L98.18 18.94L96.24 18.94Q94.46 18.94 93.54 17.88Q92.62 16.82 92.62 15.36L92.62 15.36L92.62 8.16L91.30 8.16L91.30 5.78L92.62 5.78L92.62 3.10L95.74 3.10L95.74 5.78L97.94 5.78L97.94 8.16L95.74 8.16L95.74 15.17Q95.74 16.30 96.82 16.30L96.82 16.30L98.18 16.30ZM102.36 0Q103.49 0 103.82 0.35Q104.16 0.70 104.16 1.81Q104.16 2.93 103.81 3.28Q103.46 3.62 102.35 3.62Q101.23 3.62 100.88 3.26Q100.54 2.90 100.54 1.80Q100.54 0.70 100.88 0.35Q101.23 0 102.36 0ZM103.90 5.74L103.90 18.94L100.78 18.94L100.78 5.74L103.90 5.74ZM117.65 12.82L117.65 12.82L109.66 12.82Q109.66 14.69 110.24 15.55Q110.83 16.42 112.61 16.42L112.61 16.42Q113.76 16.42 114.31 15.68Q114.86 14.95 114.86 14.28L114.86 14.28L117.67 14.28Q117.67 16.85 116.29 18.05Q114.91 19.25 112.64 19.25Q110.38 19.25 109.13 18.60L109.13 18.60Q106.56 17.28 106.56 11.59L106.56 11.59Q106.56 8.21 108.02 6.64Q109.49 5.06 112.49 5.06L112.49 5.06Q117.70 5.06 117.70 10.85L117.70 10.85Q117.70 11.47 117.65 12.82ZM109.73 10.68L109.73 10.68L114.86 10.68Q114.86 9.10 114.26 8.38Q113.66 7.66 112.43 7.66Q111.19 7.66 110.46 8.39Q109.73 9.12 109.73 10.68Z" transform="translate(51, 4.724)"></path></svg>